<svg xmlns="http://www.w3.org/2000/svg" viewBox="0 0 30 30">
  <path d="M15 3 Q20.5 9 15 15 Q9.5 9 15 3Z" fill="#DC2626"/>
  <path d="M26.4 11.3 Q22.4 18.4 15 15 Q19 7.9 26.4 11.3Z" fill="#DC2626"/>
  <path d="M22.1 24.7 Q14.1 23.1 15 15 Q23 16.6 22.1 24.7Z" fill="#DC2626"/>
  <path d="M7.9 24.7 Q7 16.6 15 15 Q15.9 23.1 7.9 24.7Z" fill="#DC2626"/>
  <path d="M3.6 11.3 Q11 7.9 15 15 Q7.6 18.4 3.6 11.3Z" fill="#DC2626"/>
  <path d="M15 3 Q20.5 9 15 15 Q9.5 9 15 3Z" fill="none" stroke="#DC2626" stroke-width="0.8" opacity="0.5"/>
  <path d="M26.4 11.3 Q22.4 18.4 15 15 Q19 7.9 26.4 11.3Z" fill="none" stroke="#DC2626" stroke-width="0.8" opacity="0.5"/>
  <path d="M22.1 24.7 Q14.1 23.1 15 15 Q23 16.6 22.1 24.7Z" fill="none" stroke="#DC2626" stroke-width="0.8" opacity="0.5"/>
  <path d="M7.9 24.7 Q7 16.6 15 15 Q15.9 23.1 7.9 24.7Z" fill="none" stroke="#DC2626" stroke-width="0.8" opacity="0.5"/>
  <path d="M3.6 11.3 Q11 7.9 15 15 Q7.6 18.4 3.6 11.3Z" fill="none" stroke="#DC2626" stroke-width="0.8" opacity="0.5"/>

  <circle cx="15" cy="15" r="4" fill="white"/>
  <circle cx="15" cy="15" r="4" fill="none" stroke="#DC2626" stroke-width="0.8" opacity="0.5"/>
</svg>
