<svg xmlns="http://www.w3.org/2000/svg" viewBox="0 0 48 48">

  <!-- Mountain — left face (shadow) -->
  <path d="M3 48 L16 24 L19.5 21 L24 5 L24 48 Z"
        fill="#1e3f62"/>

  <!-- Mountain — right face (lit) -->
  <path d="M24 5 L37 19 L45 48 L24 48 Z"
        fill="#4a87b5"/>

  <!-- Snow cap -->
  <path d="M21.5 13.5 L24 5 L26.5 13 L25.5 17 L22.5 16 Z"
        fill="#eef6fb"/>

  <!-- Ridge detail -->
  <path d="M24 5 L32.5 15"
        fill="none" stroke="#3a7099" stroke-width="0.8"
        stroke-linecap="round" opacity="0.7"/>

  <!-- Flower — centered at peak -->
  <g transform="translate(24,19) scale(0.74) translate(-15,-15)">
    <path d="M15 3 Q20.5 9 15 15 Q9.5 9 15 3Z"               fill="#DC2626"/>
    <path d="M26.4 11.3 Q22.4 18.4 15 15 Q19 7.9 26.4 11.3Z" fill="#DC2626"/>
    <path d="M22.1 24.7 Q14.1 23.1 15 15 Q23 16.6 22.1 24.7Z" fill="#DC2626"/>
    <path d="M7.9 24.7 Q7 16.6 15 15 Q15.9 23.1 7.9 24.7Z"   fill="#DC2626"/>
    <path d="M3.6 11.3 Q11 7.9 15 15 Q7.6 18.4 3.6 11.3Z"    fill="#DC2626"/>
    <path d="M15 3 Q20.5 9 15 15 Q9.5 9 15 3Z"               fill="#991b1b" opacity="0.18"/>
    <path d="M26.4 11.3 Q22.4 18.4 15 15 Q19 7.9 26.4 11.3Z" fill="#991b1b" opacity="0.12"/>
    <path d="M22.1 24.7 Q14.1 23.1 15 15 Q23 16.6 22.1 24.7Z" fill="#991b1b" opacity="0.18"/>
    <path d="M7.9 24.7 Q7 16.6 15 15 Q15.9 23.1 7.9 24.7Z"   fill="#991b1b" opacity="0.18"/>
    <path d="M3.6 11.3 Q11 7.9 15 15 Q7.6 18.4 3.6 11.3Z"    fill="#991b1b" opacity="0.12"/>
    <path d="M15 4.5 Q17.5 8 16 12 Q14 12 13 8 Q12 5.5 15 4.5Z"
          fill="white" opacity="0.28"/>
    <circle cx="15" cy="15" r="4.5" fill="white"/>
    <circle cx="15" cy="15" r="4.5" fill="none" stroke="#fca5a5" stroke-width="0.6" opacity="0.6"/>
    <circle cx="15" cy="15" r="1.8" fill="#fecaca"/>
  </g>

</svg>
